<?xml version="1.0" encoding="UTF-8"?><svg id="Layer_1" xmlns="http://www.w3.org/2000/svg" viewBox="0 0 971.1 971.04"><g id="Layer_1-2"><path d="M326.6,605.4c-108.5-61-172.8-180.7-163.5-304.9,7.9-112.7,75.7-214.6,176.7-265.3,99.5-50.5,220.1-45.5,315.1,13.2,108.2,66.2,168,191.4,151.3,317.2-93.3-53-209.1-55.7-304.8-7-95,47.7-161.4,141.3-174.8,246.8h0Z" fill="red" fill-rule="evenodd" stroke="#231f20" stroke-miterlimit="10"/><path d="M644.6,605.4c16.3,123.4-40.9,246.6-145.8,313.8-94.9,61.3-217.1,68.2-318.2,17.8C80.4,887.7,12.1,788.2,2,677.1c-11.9-126.3,52.4-249.2,163-311.4,13.6,106.4,80.9,200.7,177.2,248,95.2,47.4,209.9,44.3,302.4-8.2v-.1Z" fill="lime" fill-rule="evenodd" stroke="#231f20" stroke-miterlimit="10"/><path d="M485.6,367.2c102.7-59.6,231.7-57.5,332.4,5.4,96.1,59.4,154.7,166.9,152.5,279.9-1.5,107.3-57.7,208.5-148.1,266.5-101.3,65.6-232.5,68.8-336.9,8.3,98-56.3,160-161.7,161.6-274.7,2.2-116.8-60.3-227.1-161.6-285.3h0l.1-.1Z" fill="blue" fill-rule="evenodd" stroke="#231f20" stroke-miterlimit="10"/><path d="M644.6,605.4c-93.3,53-209.1,55.7-304.8,7-95-47.7-161.4-141.3-174.8-246.8,93.3-53,209.1-55.7,304.8-7,95,47.7,161.4,141.3,174.8,246.8h0Z" fill="#ff0" fill-rule="evenodd" stroke="#231f20" stroke-miterlimit="10"/><path d="M485.6,927.2c-98-56.3-160-161.7-161.6-274.7-2.2-116.8,60.3-227.1,161.6-285.3,98,56.3,160,161.7,161.6,274.7,2.2,116.8-60.3,227.1-161.6,285.3h0Z" fill="aqua" fill-rule="evenodd" stroke="#231f20" stroke-miterlimit="10"/><path d="M326.6,605.4c13.6-106.4,80.9-200.7,177.2-248,95.2-47.4,209.9-44.3,302.4,8.2-13.6,106.4-80.9,200.7-177.2,248-95.2,47.4-209.9,44.3-302.4-8.2h0Z" fill="#f0f" fill-rule="evenodd" stroke="#231f20" stroke-miterlimit="10"/><path d="M326.6,605.4c12.6-99.1,72.3-188.5,159-238.2,86.7,49.7,146.3,139.1,159,238.2-98,55.6-219.9,55.6-317.9,0h-.1Z" fill="#fff" stroke="#231f20" stroke-miterlimit="10"/><path d="M485.6.5c178.6,0,323.3,144.8,323.3,323.3-17,428.9-629.7,428.8-646.7,0C162.2,145.2,307,.5,485.5.5h.1Z" fill="none" stroke="#231f20"/><path d="M323.9,323.8c178.6,0,323.3,144.8,323.3,323.3-17,428.9-629.7,428.8-646.7,0,0-178.6,144.8-323.3,323.3-323.3h.1Z" fill="none" stroke="#231f20"/><path d="M647.3,323.8c178.6,0,323.3,144.8,323.3,323.3-17,428.9-629.7,428.8-646.7,0,0-178.6,144.8-323.3,323.3-323.3h.1Z" fill="none" stroke="#231f20"/></g></svg>